<mxfile host="www.draw.io" modified="2020-01-09T00:59:08.901Z" agent="Mozilla/5.0 (Macintosh; Intel Mac OS X 10_15_1) AppleWebKit/537.36 (KHTML, like Gecko) Chrome/79.0.3945.88 Safari/537.36" etag="iHMH3M2VHQPxoJ1MliEZ" version="12.4.9" type="github">
  <diagram id="IuZ1XMVCFtRU9dANoOqE" name="第 1 页">
    <mxGraphModel dx="1426" dy="713" grid="1" gridSize="10" guides="1" tooltips="1" connect="1" arrows="1" fold="1" page="1" pageScale="1" pageWidth="827" pageHeight="1169" math="0" shadow="0">
      <root>
        <mxCell id="0"/>
        <mxCell id="1" parent="0"/>
        <mxCell id="YPB-jMad4MirrQJ4VufW-1" value="ProxyController" style="shape=umlLifeline;perimeter=lifelinePerimeter;whiteSpace=wrap;html=1;container=1;collapsible=0;recursiveResize=0;outlineConnect=0;" parent="1" vertex="1">
          <mxGeometry x="140" y="100" width="100" height="790" as="geometry"/>
        </mxCell>
        <mxCell id="YPB-jMad4MirrQJ4VufW-2" value="" style="html=1;points=[];perimeter=orthogonalPerimeter;" parent="YPB-jMad4MirrQJ4VufW-1" vertex="1">
          <mxGeometry x="45" y="80" width="10" height="50" as="geometry"/>
        </mxCell>
        <mxCell id="YPB-jMad4MirrQJ4VufW-6" value="" style="html=1;points=[];perimeter=orthogonalPerimeter;" parent="YPB-jMad4MirrQJ4VufW-1" vertex="1">
          <mxGeometry x="45" y="160" width="10" height="40" as="geometry"/>
        </mxCell>
        <mxCell id="YPB-jMad4MirrQJ4VufW-7" value="base64解码&lt;br&gt;json转对象head，body" style="edgeStyle=orthogonalEdgeStyle;html=1;align=left;spacingLeft=2;endArrow=block;rounded=0;entryX=1;entryY=0;" parent="YPB-jMad4MirrQJ4VufW-1" target="YPB-jMad4MirrQJ4VufW-6" edge="1">
          <mxGeometry relative="1" as="geometry">
            <mxPoint x="50" y="140" as="sourcePoint"/>
            <Array as="points">
              <mxPoint x="75" y="140"/>
            </Array>
          </mxGeometry>
        </mxCell>
        <mxCell id="YPB-jMad4MirrQJ4VufW-3" value="request" style="html=1;verticalAlign=bottom;endArrow=block;" parent="1" edge="1">
          <mxGeometry width="80" relative="1" as="geometry">
            <mxPoint x="110" y="200" as="sourcePoint"/>
            <mxPoint x="190" y="200" as="targetPoint"/>
          </mxGeometry>
        </mxCell>
        <mxCell id="YPB-jMad4MirrQJ4VufW-4" value="YzServiceExecutor" style="shape=umlLifeline;perimeter=lifelinePerimeter;whiteSpace=wrap;html=1;container=1;collapsible=0;recursiveResize=0;outlineConnect=0;" parent="1" vertex="1">
          <mxGeometry x="300" y="100" width="120" height="780" as="geometry"/>
        </mxCell>
        <mxCell id="YPB-jMad4MirrQJ4VufW-5" value="" style="html=1;points=[];perimeter=orthogonalPerimeter;" parent="YPB-jMad4MirrQJ4VufW-4" vertex="1">
          <mxGeometry x="55" y="190" width="10" height="180" as="geometry"/>
        </mxCell>
        <mxCell id="YPB-jMad4MirrQJ4VufW-15" value="dispatch getService" style="html=1;verticalAlign=bottom;endArrow=block;entryX=0.029;entryY=0.105;entryDx=0;entryDy=0;entryPerimeter=0;" parent="YPB-jMad4MirrQJ4VufW-4" target="YPB-jMad4MirrQJ4VufW-10" edge="1">
          <mxGeometry width="80" relative="1" as="geometry">
            <mxPoint x="60" y="270" as="sourcePoint"/>
            <mxPoint x="140" y="270" as="targetPoint"/>
          </mxGeometry>
        </mxCell>
        <mxCell id="YPB-jMad4MirrQJ4VufW-19" value="" style="html=1;points=[];perimeter=orthogonalPerimeter;" parent="YPB-jMad4MirrQJ4VufW-4" vertex="1">
          <mxGeometry x="55" y="429" width="10" height="51" as="geometry"/>
        </mxCell>
        <mxCell id="YPB-jMad4MirrQJ4VufW-20" value="execute" style="edgeStyle=orthogonalEdgeStyle;html=1;align=left;spacingLeft=2;endArrow=block;rounded=0;entryX=1;entryY=0;" parent="YPB-jMad4MirrQJ4VufW-4" target="YPB-jMad4MirrQJ4VufW-19" edge="1">
          <mxGeometry relative="1" as="geometry">
            <mxPoint x="60" y="409" as="sourcePoint"/>
            <Array as="points">
              <mxPoint x="85" y="409"/>
            </Array>
          </mxGeometry>
        </mxCell>
        <mxCell id="YPB-jMad4MirrQJ4VufW-23" value="" style="html=1;points=[];perimeter=orthogonalPerimeter;" parent="YPB-jMad4MirrQJ4VufW-4" vertex="1">
          <mxGeometry x="55" y="480" width="10" height="40" as="geometry"/>
        </mxCell>
        <mxCell id="YPB-jMad4MirrQJ4VufW-24" value="执行前置拦截器&lt;br&gt;doPreHooks" style="edgeStyle=orthogonalEdgeStyle;html=1;align=left;spacingLeft=2;endArrow=block;rounded=0;entryX=1;entryY=0;" parent="YPB-jMad4MirrQJ4VufW-4" target="YPB-jMad4MirrQJ4VufW-23" edge="1">
          <mxGeometry relative="1" as="geometry">
            <mxPoint x="60" y="460" as="sourcePoint"/>
            <Array as="points">
              <mxPoint x="85" y="460"/>
            </Array>
          </mxGeometry>
        </mxCell>
        <mxCell id="YPB-jMad4MirrQJ4VufW-31" value="" style="html=1;points=[];perimeter=orthogonalPerimeter;" parent="YPB-jMad4MirrQJ4VufW-4" vertex="1">
          <mxGeometry x="55" y="590.18" width="10" height="40" as="geometry"/>
        </mxCell>
        <mxCell id="YPB-jMad4MirrQJ4VufW-32" value="action 调用具体方法&lt;br&gt;&lt;span style=&quot;font-size: 11px&quot;&gt;&amp;nbsp; _execLocal 调用本地方法&lt;/span&gt;&lt;br&gt;&lt;span style=&quot;font-size: 11px&quot;&gt;&amp;nbsp; _execRemote 调用远程方法&lt;/span&gt;" style="edgeStyle=orthogonalEdgeStyle;html=1;align=left;spacingLeft=2;endArrow=block;rounded=0;entryX=1;entryY=0;" parent="YPB-jMad4MirrQJ4VufW-4" target="YPB-jMad4MirrQJ4VufW-31" edge="1">
          <mxGeometry relative="1" as="geometry">
            <mxPoint x="60" y="570.18" as="sourcePoint"/>
            <Array as="points">
              <mxPoint x="85" y="570.18"/>
            </Array>
          </mxGeometry>
        </mxCell>
        <mxCell id="YPB-jMad4MirrQJ4VufW-33" value="&lt;span style=&quot;font-size: 12px ; background-color: rgb(248 , 249 , 250)&quot;&gt;dispatch&amp;nbsp;preExecute&lt;/span&gt;" style="html=1;verticalAlign=bottom;endArrow=block;" parent="YPB-jMad4MirrQJ4VufW-4" edge="1">
          <mxGeometry width="80" relative="1" as="geometry">
            <mxPoint x="60" y="500" as="sourcePoint"/>
            <mxPoint x="556" y="501" as="targetPoint"/>
          </mxGeometry>
        </mxCell>
        <mxCell id="4bRlYBqqIVOicC3_8kca-13" value="" style="html=1;points=[];perimeter=orthogonalPerimeter;" parent="YPB-jMad4MirrQJ4VufW-4" vertex="1">
          <mxGeometry x="55" y="90" width="10" height="40" as="geometry"/>
        </mxCell>
        <mxCell id="4bRlYBqqIVOicC3_8kca-14" value="初始化&lt;br&gt;加载所有ServiceInvokeFilter子类&lt;br&gt;init" style="edgeStyle=orthogonalEdgeStyle;html=1;align=left;spacingLeft=2;endArrow=block;rounded=0;entryX=1;entryY=0;" parent="YPB-jMad4MirrQJ4VufW-4" target="4bRlYBqqIVOicC3_8kca-13" edge="1">
          <mxGeometry relative="1" as="geometry">
            <mxPoint x="60" y="70" as="sourcePoint"/>
            <Array as="points">
              <mxPoint x="85" y="70"/>
            </Array>
          </mxGeometry>
        </mxCell>
        <mxCell id="YPB-jMad4MirrQJ4VufW-8" value="dispatch getInterfaceInfo" style="html=1;verticalAlign=bottom;endArrow=block;" parent="1" target="YPB-jMad4MirrQJ4VufW-5" edge="1">
          <mxGeometry width="80" relative="1" as="geometry">
            <mxPoint x="190" y="320" as="sourcePoint"/>
            <mxPoint x="270" y="320" as="targetPoint"/>
          </mxGeometry>
        </mxCell>
        <mxCell id="YPB-jMad4MirrQJ4VufW-9" value="BccServiceLocator" style="shape=umlLifeline;perimeter=lifelinePerimeter;whiteSpace=wrap;html=1;container=1;collapsible=0;recursiveResize=0;outlineConnect=0;" parent="1" vertex="1">
          <mxGeometry x="520" y="100" width="120" height="790" as="geometry"/>
        </mxCell>
        <mxCell id="YPB-jMad4MirrQJ4VufW-10" value="" style="html=1;points=[];perimeter=orthogonalPerimeter;" parent="YPB-jMad4MirrQJ4VufW-9" vertex="1">
          <mxGeometry x="55" y="260" width="10" height="110" as="geometry"/>
        </mxCell>
        <mxCell id="YPB-jMad4MirrQJ4VufW-11" value="" style="html=1;points=[];perimeter=orthogonalPerimeter;" parent="YPB-jMad4MirrQJ4VufW-9" vertex="1">
          <mxGeometry x="55" y="95" width="10" height="40" as="geometry"/>
        </mxCell>
        <mxCell id="YPB-jMad4MirrQJ4VufW-12" value="init初始化&lt;br&gt;本地服务和远程服务&lt;br&gt;本地通过service和YzService获取&lt;br&gt;远程从redis获取" style="edgeStyle=orthogonalEdgeStyle;html=1;align=left;spacingLeft=2;endArrow=block;rounded=0;entryX=1;entryY=0;" parent="YPB-jMad4MirrQJ4VufW-9" target="YPB-jMad4MirrQJ4VufW-11" edge="1">
          <mxGeometry relative="1" as="geometry">
            <mxPoint x="60" y="75" as="sourcePoint"/>
            <Array as="points">
              <mxPoint x="85" y="75"/>
            </Array>
          </mxGeometry>
        </mxCell>
        <mxCell id="YPB-jMad4MirrQJ4VufW-13" value="" style="html=1;points=[];perimeter=orthogonalPerimeter;" parent="YPB-jMad4MirrQJ4VufW-9" vertex="1">
          <mxGeometry x="55" y="180" width="10" height="40" as="geometry"/>
        </mxCell>
        <mxCell id="YPB-jMad4MirrQJ4VufW-14" value="定时同步redis信息，&lt;br&gt;删除不可用服务&lt;br&gt;（仅仅是根据value是否大于0来判断？）&lt;br&gt;seekGatewayInfo()" style="edgeStyle=orthogonalEdgeStyle;html=1;align=left;spacingLeft=2;endArrow=block;rounded=0;entryX=1;entryY=0;" parent="YPB-jMad4MirrQJ4VufW-9" target="YPB-jMad4MirrQJ4VufW-13" edge="1">
          <mxGeometry relative="1" as="geometry">
            <mxPoint x="60" y="160" as="sourcePoint"/>
            <Array as="points">
              <mxPoint x="85" y="160"/>
            </Array>
          </mxGeometry>
        </mxCell>
        <mxCell id="YPB-jMad4MirrQJ4VufW-16" value="return YzServiceInfo" style="html=1;verticalAlign=bottom;endArrow=open;dashed=1;endSize=8;" parent="1" source="YPB-jMad4MirrQJ4VufW-9" edge="1">
          <mxGeometry relative="1" as="geometry">
            <mxPoint x="460" y="455" as="sourcePoint"/>
            <mxPoint x="370" y="455" as="targetPoint"/>
          </mxGeometry>
        </mxCell>
        <mxCell id="YPB-jMad4MirrQJ4VufW-25" value="ServiceInvokeFilter" style="shape=umlLifeline;perimeter=lifelinePerimeter;whiteSpace=wrap;html=1;container=1;collapsible=0;recursiveResize=0;outlineConnect=0;" parent="1" vertex="1">
          <mxGeometry x="800" y="100" width="120" height="810" as="geometry"/>
        </mxCell>
        <mxCell id="YPB-jMad4MirrQJ4VufW-29" value="" style="html=1;points=[];perimeter=orthogonalPerimeter;" parent="YPB-jMad4MirrQJ4VufW-25" vertex="1">
          <mxGeometry x="55" y="470" width="10" height="80" as="geometry"/>
        </mxCell>
        <mxCell id="YPB-jMad4MirrQJ4VufW-38" value="" style="html=1;points=[];perimeter=orthogonalPerimeter;" parent="YPB-jMad4MirrQJ4VufW-25" vertex="1">
          <mxGeometry x="54" y="680" width="10" height="80" as="geometry"/>
        </mxCell>
        <mxCell id="YPB-jMad4MirrQJ4VufW-39" value="dispatch&amp;nbsp;postExecute" style="html=1;verticalAlign=bottom;startArrow=oval;endArrow=block;startSize=8;" parent="1" target="YPB-jMad4MirrQJ4VufW-38" edge="1">
          <mxGeometry relative="1" as="geometry">
            <mxPoint x="364" y="780.0000000000002" as="sourcePoint"/>
          </mxGeometry>
        </mxCell>
        <mxCell id="YPB-jMad4MirrQJ4VufW-40" value="return&amp;nbsp;Response" style="html=1;verticalAlign=bottom;endArrow=open;dashed=1;endSize=8;" parent="1" target="YPB-jMad4MirrQJ4VufW-1" edge="1">
          <mxGeometry relative="1" as="geometry">
            <mxPoint x="360" y="850" as="sourcePoint"/>
            <mxPoint x="280" y="850" as="targetPoint"/>
          </mxGeometry>
        </mxCell>
        <mxCell id="4bRlYBqqIVOicC3_8kca-12" value="&lt;span style=&quot;text-align: left ; white-space: nowrap&quot;&gt;TraceInvokeFilter&lt;br&gt;追踪&lt;/span&gt;" style="shape=umlLifeline;perimeter=lifelinePerimeter;whiteSpace=wrap;html=1;container=1;collapsible=0;recursiveResize=0;outlineConnect=0;" parent="1" vertex="1">
          <mxGeometry x="1810" y="100" width="120" height="810" as="geometry"/>
        </mxCell>
        <mxCell id="4bRlYBqqIVOicC3_8kca-17" value="&lt;div&gt;BaseInvokeFilter&lt;span style=&quot;white-space: pre&quot;&gt; &lt;/span&gt;用户校验&lt;/div&gt;&lt;div&gt;CacheInvokeFilter&lt;span style=&quot;white-space: pre&quot;&gt; &lt;/span&gt;缓存&lt;/div&gt;&lt;div&gt;LimitInvokeFilter&lt;span style=&quot;white-space: pre&quot;&gt; &lt;/span&gt;流控阻断器&lt;/div&gt;&lt;div&gt;RiskInvokeFilter&lt;span style=&quot;white-space: pre&quot;&gt; &lt;/span&gt;分控管理调用&lt;/div&gt;&lt;div&gt;SignInvokeFilter&lt;span style=&quot;white-space: pre&quot;&gt; &lt;/span&gt;全局验签操作&lt;/div&gt;&lt;div&gt;TraceInvokeFilter&lt;span style=&quot;white-space: pre&quot;&gt; &lt;/span&gt;追踪&lt;/div&gt;" style="shape=note;whiteSpace=wrap;html=1;size=14;verticalAlign=top;align=left;spacingTop=-6;" parent="1" vertex="1">
          <mxGeometry x="870" y="500" width="200" height="90" as="geometry"/>
        </mxCell>
        <mxCell id="4bRlYBqqIVOicC3_8kca-18" value="&lt;div&gt;BaseInvokeFilter&lt;span style=&quot;white-space: pre&quot;&gt; &lt;/span&gt;用户校验&lt;/div&gt;&lt;div&gt;CacheInvokeFilter&lt;span style=&quot;white-space: pre&quot;&gt; &lt;/span&gt;缓存&lt;/div&gt;&lt;div&gt;LimitInvokeFilter&lt;span style=&quot;white-space: pre&quot;&gt; &lt;/span&gt;流控阻断器&lt;/div&gt;&lt;div&gt;RiskInvokeFilter&lt;span style=&quot;white-space: pre&quot;&gt; &lt;/span&gt;分控管理调用&lt;/div&gt;&lt;div&gt;SignInvokeFilter&lt;span style=&quot;white-space: pre&quot;&gt; &lt;/span&gt;全局验签操作&lt;/div&gt;&lt;div&gt;TraceInvokeFilter&lt;span style=&quot;white-space: pre&quot;&gt; &lt;/span&gt;追踪&lt;/div&gt;" style="shape=note;whiteSpace=wrap;html=1;size=14;verticalAlign=top;align=left;spacingTop=-6;" parent="1" vertex="1">
          <mxGeometry x="870" y="750" width="200" height="90" as="geometry"/>
        </mxCell>
        <mxCell id="4bRlYBqqIVOicC3_8kca-20" value="服务同步是通过ExporterListener实现，再通过redis发布、订阅通知其他服务" style="shape=note;whiteSpace=wrap;html=1;size=14;verticalAlign=top;align=left;spacingTop=-6;" parent="1" vertex="1">
          <mxGeometry x="600" y="310" width="100" height="80" as="geometry"/>
        </mxCell>
        <mxCell id="Oe4pv-bE2f4ACkUFIU8D-1" value="return response" style="html=1;verticalAlign=bottom;endArrow=open;dashed=1;endSize=8;" edge="1" parent="1" target="YPB-jMad4MirrQJ4VufW-1">
          <mxGeometry relative="1" as="geometry">
            <mxPoint x="850" y="640" as="sourcePoint"/>
            <mxPoint x="770" y="640" as="targetPoint"/>
          </mxGeometry>
        </mxCell>
      </root>
    </mxGraphModel>
  </diagram>
</mxfile>
